# xmcd
#
# Track frame offsets:
#	150
#	26611
#	48946
#	69331
#	101029
#	121280
#	139797
#	160386
#	179737
#	203364
#	227815
#	253616
#
# Disc length: 3690 seconds
# Revision: 0
# Processed by: cddbd v1.5.2PL0 Copyright (c) Steve Scherf et al.
# Submitted via: dBpowerAMP V12.0
#
DISCID=a30e680c
DTITLE=Eric Gales - Good For Sumthin'
DYEAR=2014
DGENRE=Blues-Rock
TTITLE0=Come A Long Way
TTITLE1=1019
TTITLE2=Going Back To Memphis
TTITLE3=Good For Sumthin'
TTITLE4=Six Deep
TTITLE5=You Give Me Life
TTITLE6=Heaven's Gate
TTITLE7=Tonight (I'm Leaving)
TTITLE8=Show Me How
TTITLE9=Miss You
TTITLE10=Steep Climb (feat. Zakk Wylde)
TTITLE11=E2 (Note For Note) feat. Eric Johnson
EXTD=
EXTT0=
EXTT1=
EXTT2=
EXTT3=
EXTT4=
EXTT5=
EXTT6=
EXTT7=
EXTT8=
EXTT9=
EXTT10=
EXTT11=
PLAYORDER=
